<mxfile host="app.diagrams.net" modified="2021-03-08T01:39:18.675Z" agent="5.0 (Macintosh; Intel Mac OS X 11_2_2) AppleWebKit/537.36 (KHTML, like Gecko) Chrome/88.0.4324.182 Safari/537.36 Edg/88.0.705.81" etag="xdCMjg7a5mLxAotc4juY" version="14.4.4" type="github">
  <diagram id="z-tba_glWl1QXpMOWKKf" name="Page-1">
    <mxGraphModel dx="2066" dy="1129" grid="0" gridSize="10" guides="1" tooltips="1" connect="1" arrows="1" fold="1" page="1" pageScale="1" pageWidth="827" pageHeight="1169" math="0" shadow="0">
      <root>
        <mxCell id="0" />
        <mxCell id="1" parent="0" />
        <mxCell id="VeUXbWMfwJ99OzFfx38T-6" style="edgeStyle=orthogonalEdgeStyle;rounded=0;orthogonalLoop=1;jettySize=auto;html=1;" edge="1" parent="1" source="VeUXbWMfwJ99OzFfx38T-1">
          <mxGeometry relative="1" as="geometry">
            <mxPoint x="380" y="260" as="targetPoint" />
          </mxGeometry>
        </mxCell>
        <mxCell id="VeUXbWMfwJ99OzFfx38T-1" value="新增订单" style="rounded=1;whiteSpace=wrap;html=1;" vertex="1" parent="1">
          <mxGeometry x="320" y="130" width="120" height="50" as="geometry" />
        </mxCell>
        <mxCell id="VeUXbWMfwJ99OzFfx38T-8" style="edgeStyle=orthogonalEdgeStyle;rounded=0;orthogonalLoop=1;jettySize=auto;html=1;" edge="1" parent="1" source="VeUXbWMfwJ99OzFfx38T-7">
          <mxGeometry relative="1" as="geometry">
            <mxPoint x="440" y="155" as="targetPoint" />
            <Array as="points">
              <mxPoint x="610" y="280" />
              <mxPoint x="610" y="155" />
            </Array>
          </mxGeometry>
        </mxCell>
        <mxCell id="VeUXbWMfwJ99OzFfx38T-10" value="T" style="edgeLabel;html=1;align=center;verticalAlign=middle;resizable=0;points=[];" vertex="1" connectable="0" parent="VeUXbWMfwJ99OzFfx38T-8">
          <mxGeometry x="-0.6976" y="-2" relative="1" as="geometry">
            <mxPoint x="4" y="-2" as="offset" />
          </mxGeometry>
        </mxCell>
        <mxCell id="VeUXbWMfwJ99OzFfx38T-12" style="edgeStyle=orthogonalEdgeStyle;rounded=0;orthogonalLoop=1;jettySize=auto;html=1;" edge="1" parent="1" source="VeUXbWMfwJ99OzFfx38T-7" target="VeUXbWMfwJ99OzFfx38T-11">
          <mxGeometry relative="1" as="geometry" />
        </mxCell>
        <mxCell id="VeUXbWMfwJ99OzFfx38T-13" value="F" style="edgeLabel;html=1;align=center;verticalAlign=middle;resizable=0;points=[];" vertex="1" connectable="0" parent="VeUXbWMfwJ99OzFfx38T-12">
          <mxGeometry x="-0.4667" y="1" relative="1" as="geometry">
            <mxPoint x="-1" y="14" as="offset" />
          </mxGeometry>
        </mxCell>
        <mxCell id="VeUXbWMfwJ99OzFfx38T-7" value="订单是否异常" style="rhombus;whiteSpace=wrap;html=1;" vertex="1" parent="1">
          <mxGeometry x="340" y="240" width="80" height="80" as="geometry" />
        </mxCell>
        <mxCell id="VeUXbWMfwJ99OzFfx38T-16" style="edgeStyle=orthogonalEdgeStyle;rounded=0;orthogonalLoop=1;jettySize=auto;html=1;entryX=0.5;entryY=0;entryDx=0;entryDy=0;" edge="1" parent="1" source="VeUXbWMfwJ99OzFfx38T-11" target="VeUXbWMfwJ99OzFfx38T-15">
          <mxGeometry relative="1" as="geometry">
            <Array as="points">
              <mxPoint x="260" y="470" />
            </Array>
          </mxGeometry>
        </mxCell>
        <mxCell id="VeUXbWMfwJ99OzFfx38T-18" value="F" style="edgeLabel;html=1;align=center;verticalAlign=middle;resizable=0;points=[];" vertex="1" connectable="0" parent="VeUXbWMfwJ99OzFfx38T-16">
          <mxGeometry x="-0.8105" y="2" relative="1" as="geometry">
            <mxPoint y="-2" as="offset" />
          </mxGeometry>
        </mxCell>
        <mxCell id="VeUXbWMfwJ99OzFfx38T-21" style="edgeStyle=orthogonalEdgeStyle;rounded=0;orthogonalLoop=1;jettySize=auto;html=1;entryX=0.5;entryY=0;entryDx=0;entryDy=0;" edge="1" parent="1" source="VeUXbWMfwJ99OzFfx38T-11" target="VeUXbWMfwJ99OzFfx38T-20">
          <mxGeometry relative="1" as="geometry">
            <Array as="points">
              <mxPoint x="480" y="470" />
            </Array>
          </mxGeometry>
        </mxCell>
        <mxCell id="VeUXbWMfwJ99OzFfx38T-22" value="T" style="edgeLabel;html=1;align=center;verticalAlign=middle;resizable=0;points=[];" vertex="1" connectable="0" parent="VeUXbWMfwJ99OzFfx38T-21">
          <mxGeometry x="-0.58" y="1" relative="1" as="geometry">
            <mxPoint as="offset" />
          </mxGeometry>
        </mxCell>
        <mxCell id="VeUXbWMfwJ99OzFfx38T-11" value="是否需要创建回款计划或关联回款单" style="rhombus;whiteSpace=wrap;html=1;fontFamily=Helvetica;fontSize=12;fontColor=#000000;align=center;strokeColor=#000000;fillColor=#ffffff;" vertex="1" parent="1">
          <mxGeometry x="320" y="410" width="120" height="120" as="geometry" />
        </mxCell>
        <mxCell id="VeUXbWMfwJ99OzFfx38T-29" style="edgeStyle=orthogonalEdgeStyle;rounded=0;orthogonalLoop=1;jettySize=auto;html=1;entryX=1;entryY=0.5;entryDx=0;entryDy=0;exitX=0.5;exitY=1;exitDx=0;exitDy=0;" edge="1" parent="1" source="VeUXbWMfwJ99OzFfx38T-15" target="VeUXbWMfwJ99OzFfx38T-1">
          <mxGeometry relative="1" as="geometry">
            <Array as="points">
              <mxPoint x="260" y="900" />
              <mxPoint x="610" y="900" />
              <mxPoint x="610" y="155" />
            </Array>
          </mxGeometry>
        </mxCell>
        <mxCell id="VeUXbWMfwJ99OzFfx38T-15" value="创建订单" style="rounded=0;whiteSpace=wrap;html=1;" vertex="1" parent="1">
          <mxGeometry x="200" y="800" width="120" height="60" as="geometry" />
        </mxCell>
        <mxCell id="VeUXbWMfwJ99OzFfx38T-24" style="edgeStyle=orthogonalEdgeStyle;rounded=0;orthogonalLoop=1;jettySize=auto;html=1;" edge="1" parent="1" source="VeUXbWMfwJ99OzFfx38T-20" target="VeUXbWMfwJ99OzFfx38T-23">
          <mxGeometry relative="1" as="geometry" />
        </mxCell>
        <mxCell id="VeUXbWMfwJ99OzFfx38T-20" value="调用CRM创建回款计划或关联回款单接口" style="rounded=0;whiteSpace=wrap;html=1;" vertex="1" parent="1">
          <mxGeometry x="420" y="530" width="120" height="60" as="geometry" />
        </mxCell>
        <mxCell id="VeUXbWMfwJ99OzFfx38T-25" style="edgeStyle=orthogonalEdgeStyle;rounded=0;orthogonalLoop=1;jettySize=auto;html=1;" edge="1" parent="1" source="VeUXbWMfwJ99OzFfx38T-23">
          <mxGeometry relative="1" as="geometry">
            <mxPoint x="440" y="155" as="targetPoint" />
            <Array as="points">
              <mxPoint x="610" y="700" />
              <mxPoint x="610" y="155" />
              <mxPoint x="440" y="155" />
            </Array>
          </mxGeometry>
        </mxCell>
        <mxCell id="VeUXbWMfwJ99OzFfx38T-26" value="T" style="edgeLabel;html=1;align=center;verticalAlign=middle;resizable=0;points=[];" vertex="1" connectable="0" parent="VeUXbWMfwJ99OzFfx38T-25">
          <mxGeometry x="-0.9291" y="1" relative="1" as="geometry">
            <mxPoint as="offset" />
          </mxGeometry>
        </mxCell>
        <mxCell id="VeUXbWMfwJ99OzFfx38T-27" style="edgeStyle=orthogonalEdgeStyle;rounded=0;orthogonalLoop=1;jettySize=auto;html=1;entryX=1;entryY=0.5;entryDx=0;entryDy=0;" edge="1" parent="1" source="VeUXbWMfwJ99OzFfx38T-23" target="VeUXbWMfwJ99OzFfx38T-15">
          <mxGeometry relative="1" as="geometry">
            <Array as="points">
              <mxPoint x="480" y="830" />
            </Array>
          </mxGeometry>
        </mxCell>
        <mxCell id="VeUXbWMfwJ99OzFfx38T-28" value="F" style="edgeLabel;html=1;align=center;verticalAlign=middle;resizable=0;points=[];" vertex="1" connectable="0" parent="VeUXbWMfwJ99OzFfx38T-27">
          <mxGeometry x="-0.704" y="1" relative="1" as="geometry">
            <mxPoint x="-2" as="offset" />
          </mxGeometry>
        </mxCell>
        <mxCell id="VeUXbWMfwJ99OzFfx38T-23" value="接口返回是否异常" style="rhombus;whiteSpace=wrap;html=1;" vertex="1" parent="1">
          <mxGeometry x="440" y="660" width="80" height="80" as="geometry" />
        </mxCell>
        <mxCell id="VeUXbWMfwJ99OzFfx38T-33" style="edgeStyle=orthogonalEdgeStyle;rounded=0;orthogonalLoop=1;jettySize=auto;html=1;" edge="1" parent="1" source="VeUXbWMfwJ99OzFfx38T-31" target="VeUXbWMfwJ99OzFfx38T-32">
          <mxGeometry relative="1" as="geometry" />
        </mxCell>
        <mxCell id="VeUXbWMfwJ99OzFfx38T-31" value="需要获取订单信息的操作" style="rounded=1;whiteSpace=wrap;html=1;" vertex="1" parent="1">
          <mxGeometry x="355" y="1242" width="120" height="60" as="geometry" />
        </mxCell>
        <mxCell id="VeUXbWMfwJ99OzFfx38T-35" style="edgeStyle=orthogonalEdgeStyle;rounded=0;orthogonalLoop=1;jettySize=auto;html=1;" edge="1" parent="1" source="VeUXbWMfwJ99OzFfx38T-32" target="VeUXbWMfwJ99OzFfx38T-34">
          <mxGeometry relative="1" as="geometry" />
        </mxCell>
        <mxCell id="VeUXbWMfwJ99OzFfx38T-32" value="获取订单信息" style="rounded=0;whiteSpace=wrap;html=1;" vertex="1" parent="1">
          <mxGeometry x="355" y="1382" width="120" height="60" as="geometry" />
        </mxCell>
        <mxCell id="VeUXbWMfwJ99OzFfx38T-37" style="edgeStyle=orthogonalEdgeStyle;rounded=0;orthogonalLoop=1;jettySize=auto;html=1;entryX=0;entryY=0.5;entryDx=0;entryDy=0;" edge="1" parent="1" source="VeUXbWMfwJ99OzFfx38T-34" target="VeUXbWMfwJ99OzFfx38T-31">
          <mxGeometry relative="1" as="geometry">
            <Array as="points">
              <mxPoint x="285" y="1577" />
              <mxPoint x="285" y="1272" />
            </Array>
          </mxGeometry>
        </mxCell>
        <mxCell id="VeUXbWMfwJ99OzFfx38T-39" value="F" style="edgeLabel;html=1;align=center;verticalAlign=middle;resizable=0;points=[];" vertex="1" connectable="0" parent="VeUXbWMfwJ99OzFfx38T-37">
          <mxGeometry x="-0.8562" relative="1" as="geometry">
            <mxPoint as="offset" />
          </mxGeometry>
        </mxCell>
        <mxCell id="VeUXbWMfwJ99OzFfx38T-41" style="edgeStyle=orthogonalEdgeStyle;rounded=0;orthogonalLoop=1;jettySize=auto;html=1;" edge="1" parent="1" source="VeUXbWMfwJ99OzFfx38T-34" target="VeUXbWMfwJ99OzFfx38T-40">
          <mxGeometry relative="1" as="geometry" />
        </mxCell>
        <mxCell id="VeUXbWMfwJ99OzFfx38T-34" value="获取订单信息是否成功" style="rhombus;whiteSpace=wrap;html=1;fontFamily=Helvetica;fontSize=12;fontColor=#000000;align=center;strokeColor=#000000;fillColor=#ffffff;" vertex="1" parent="1">
          <mxGeometry x="355" y="1532" width="120" height="90" as="geometry" />
        </mxCell>
        <mxCell id="VeUXbWMfwJ99OzFfx38T-43" style="edgeStyle=orthogonalEdgeStyle;rounded=0;orthogonalLoop=1;jettySize=auto;html=1;" edge="1" parent="1" source="VeUXbWMfwJ99OzFfx38T-40" target="VeUXbWMfwJ99OzFfx38T-42">
          <mxGeometry relative="1" as="geometry" />
        </mxCell>
        <mxCell id="VeUXbWMfwJ99OzFfx38T-40" value="进入业务流程" style="rounded=0;whiteSpace=wrap;html=1;" vertex="1" parent="1">
          <mxGeometry x="355" y="1682" width="120" height="60" as="geometry" />
        </mxCell>
        <mxCell id="VeUXbWMfwJ99OzFfx38T-42" value="结束" style="rounded=1;whiteSpace=wrap;html=1;" vertex="1" parent="1">
          <mxGeometry x="355" y="1812" width="120" height="60" as="geometry" />
        </mxCell>
        <mxCell id="VeUXbWMfwJ99OzFfx38T-47" style="edgeStyle=orthogonalEdgeStyle;rounded=0;orthogonalLoop=1;jettySize=auto;html=1;entryX=0.5;entryY=0;entryDx=0;entryDy=0;" edge="1" parent="1" source="VeUXbWMfwJ99OzFfx38T-44" target="VeUXbWMfwJ99OzFfx38T-45">
          <mxGeometry relative="1" as="geometry" />
        </mxCell>
        <mxCell id="VeUXbWMfwJ99OzFfx38T-44" value="关联回款单" style="rounded=1;whiteSpace=wrap;html=1;" vertex="1" parent="1">
          <mxGeometry x="354" y="1982" width="120" height="60" as="geometry" />
        </mxCell>
        <mxCell id="VeUXbWMfwJ99OzFfx38T-50" style="edgeStyle=orthogonalEdgeStyle;rounded=0;orthogonalLoop=1;jettySize=auto;html=1;" edge="1" parent="1" source="VeUXbWMfwJ99OzFfx38T-45" target="VeUXbWMfwJ99OzFfx38T-49">
          <mxGeometry relative="1" as="geometry" />
        </mxCell>
        <mxCell id="VeUXbWMfwJ99OzFfx38T-45" value="业务流程" style="rounded=0;whiteSpace=wrap;html=1;" vertex="1" parent="1">
          <mxGeometry x="354" y="2105" width="120" height="60" as="geometry" />
        </mxCell>
        <mxCell id="VeUXbWMfwJ99OzFfx38T-58" style="edgeStyle=orthogonalEdgeStyle;rounded=0;orthogonalLoop=1;jettySize=auto;html=1;entryX=0.5;entryY=0;entryDx=0;entryDy=0;" edge="1" parent="1" source="VeUXbWMfwJ99OzFfx38T-46" target="VeUXbWMfwJ99OzFfx38T-52">
          <mxGeometry relative="1" as="geometry">
            <mxPoint x="414" y="2521" as="targetPoint" />
          </mxGeometry>
        </mxCell>
        <mxCell id="VeUXbWMfwJ99OzFfx38T-46" value="修改订单" style="rounded=0;whiteSpace=wrap;html=1;" vertex="1" parent="1">
          <mxGeometry x="354" y="2389" width="120" height="60" as="geometry" />
        </mxCell>
        <mxCell id="VeUXbWMfwJ99OzFfx38T-51" style="edgeStyle=orthogonalEdgeStyle;rounded=0;orthogonalLoop=1;jettySize=auto;html=1;" edge="1" parent="1" source="VeUXbWMfwJ99OzFfx38T-49" target="VeUXbWMfwJ99OzFfx38T-46">
          <mxGeometry relative="1" as="geometry" />
        </mxCell>
        <mxCell id="VeUXbWMfwJ99OzFfx38T-55" value="F" style="edgeLabel;html=1;align=center;verticalAlign=middle;resizable=0;points=[];" vertex="1" connectable="0" parent="VeUXbWMfwJ99OzFfx38T-51">
          <mxGeometry x="-0.0222" y="-1" relative="1" as="geometry">
            <mxPoint as="offset" />
          </mxGeometry>
        </mxCell>
        <mxCell id="VeUXbWMfwJ99OzFfx38T-53" style="edgeStyle=orthogonalEdgeStyle;rounded=0;orthogonalLoop=1;jettySize=auto;html=1;entryX=0;entryY=0.5;entryDx=0;entryDy=0;" edge="1" parent="1" source="VeUXbWMfwJ99OzFfx38T-49" target="VeUXbWMfwJ99OzFfx38T-52">
          <mxGeometry relative="1" as="geometry">
            <Array as="points">
              <mxPoint x="298" y="2259" />
              <mxPoint x="298" y="2624" />
            </Array>
          </mxGeometry>
        </mxCell>
        <mxCell id="VeUXbWMfwJ99OzFfx38T-54" value="T" style="edgeLabel;html=1;align=center;verticalAlign=middle;resizable=0;points=[];" vertex="1" connectable="0" parent="VeUXbWMfwJ99OzFfx38T-53">
          <mxGeometry x="-0.8833" y="-1" relative="1" as="geometry">
            <mxPoint as="offset" />
          </mxGeometry>
        </mxCell>
        <mxCell id="VeUXbWMfwJ99OzFfx38T-49" value="是否有异常" style="rhombus;whiteSpace=wrap;html=1;" vertex="1" parent="1">
          <mxGeometry x="374" y="2219" width="80" height="80" as="geometry" />
        </mxCell>
        <mxCell id="VeUXbWMfwJ99OzFfx38T-52" value="结束" style="rounded=1;whiteSpace=wrap;html=1;" vertex="1" parent="1">
          <mxGeometry x="354" y="2594" width="120" height="60" as="geometry" />
        </mxCell>
        <mxCell id="VeUXbWMfwJ99OzFfx38T-61" style="edgeStyle=orthogonalEdgeStyle;rounded=0;orthogonalLoop=1;jettySize=auto;html=1;" edge="1" parent="1" source="VeUXbWMfwJ99OzFfx38T-59" target="VeUXbWMfwJ99OzFfx38T-60">
          <mxGeometry relative="1" as="geometry" />
        </mxCell>
        <mxCell id="VeUXbWMfwJ99OzFfx38T-59" value="支付回调" style="rounded=1;whiteSpace=wrap;html=1;" vertex="1" parent="1">
          <mxGeometry x="350" y="2799" width="120" height="60" as="geometry" />
        </mxCell>
        <mxCell id="VeUXbWMfwJ99OzFfx38T-64" style="edgeStyle=orthogonalEdgeStyle;rounded=0;orthogonalLoop=1;jettySize=auto;html=1;" edge="1" parent="1" source="VeUXbWMfwJ99OzFfx38T-60" target="VeUXbWMfwJ99OzFfx38T-63">
          <mxGeometry relative="1" as="geometry" />
        </mxCell>
        <mxCell id="VeUXbWMfwJ99OzFfx38T-60" value="业务逻辑" style="rounded=0;whiteSpace=wrap;html=1;" vertex="1" parent="1">
          <mxGeometry x="350" y="2967" width="120" height="60" as="geometry" />
        </mxCell>
        <mxCell id="VeUXbWMfwJ99OzFfx38T-65" style="edgeStyle=orthogonalEdgeStyle;rounded=0;orthogonalLoop=1;jettySize=auto;html=1;entryX=0;entryY=0.5;entryDx=0;entryDy=0;" edge="1" parent="1" source="VeUXbWMfwJ99OzFfx38T-63" target="VeUXbWMfwJ99OzFfx38T-59">
          <mxGeometry relative="1" as="geometry">
            <mxPoint x="344" y="2827" as="targetPoint" />
            <Array as="points">
              <mxPoint x="301" y="3132" />
              <mxPoint x="301" y="2829" />
            </Array>
          </mxGeometry>
        </mxCell>
        <mxCell id="VeUXbWMfwJ99OzFfx38T-66" value="T" style="edgeLabel;html=1;align=center;verticalAlign=middle;resizable=0;points=[];" vertex="1" connectable="0" parent="VeUXbWMfwJ99OzFfx38T-65">
          <mxGeometry x="-0.8242" relative="1" as="geometry">
            <mxPoint as="offset" />
          </mxGeometry>
        </mxCell>
        <mxCell id="VeUXbWMfwJ99OzFfx38T-68" style="edgeStyle=orthogonalEdgeStyle;rounded=0;orthogonalLoop=1;jettySize=auto;html=1;entryX=0.5;entryY=0;entryDx=0;entryDy=0;" edge="1" parent="1" source="VeUXbWMfwJ99OzFfx38T-63" target="VeUXbWMfwJ99OzFfx38T-67">
          <mxGeometry relative="1" as="geometry" />
        </mxCell>
        <mxCell id="VeUXbWMfwJ99OzFfx38T-63" value="是否有异常" style="rhombus;whiteSpace=wrap;html=1;" vertex="1" parent="1">
          <mxGeometry x="370" y="3092" width="80" height="80" as="geometry" />
        </mxCell>
        <mxCell id="VeUXbWMfwJ99OzFfx38T-71" style="edgeStyle=orthogonalEdgeStyle;rounded=0;orthogonalLoop=1;jettySize=auto;html=1;" edge="1" parent="1" source="VeUXbWMfwJ99OzFfx38T-67" target="VeUXbWMfwJ99OzFfx38T-70">
          <mxGeometry relative="1" as="geometry" />
        </mxCell>
        <mxCell id="VeUXbWMfwJ99OzFfx38T-67" value="修改订单信息" style="rounded=0;whiteSpace=wrap;html=1;" vertex="1" parent="1">
          <mxGeometry x="350" y="3242" width="120" height="60" as="geometry" />
        </mxCell>
        <mxCell id="VeUXbWMfwJ99OzFfx38T-70" value="结束" style="rounded=1;whiteSpace=wrap;html=1;" vertex="1" parent="1">
          <mxGeometry x="350" y="3388" width="120" height="60" as="geometry" />
        </mxCell>
      </root>
    </mxGraphModel>
  </diagram>
</mxfile>
